<?xml version="1.0" encoding="UTF-8" standalone="no"?>
<!-- Generator: Adobe Illustrator 18.0.0, SVG Export Plug-In . SVG Version: 6.00 Build 0)  -->

<svg
   xmlns:dc="http://purl.org/dc/elements/1.1/"
   xmlns:cc="http://creativecommons.org/ns#"
   xmlns:rdf="http://www.w3.org/1999/02/22-rdf-syntax-ns#"
   xmlns:svg="http://www.w3.org/2000/svg"
   xmlns="http://www.w3.org/2000/svg"
   xmlns:sodipodi="http://sodipodi.sourceforge.net/DTD/sodipodi-0.dtd"
   xmlns:inkscape="http://www.inkscape.org/namespaces/inkscape"
   version="1.1"
   id="Capa_1"
   x="0px"
   y="0px"
   viewBox="0 0 314.652 314.652"
   style="enable-background:new 0 0 314.652 314.652;"
   xml:space="preserve"
   sodipodi:docname="facebook.svg"
   inkscape:version="0.92.3 (2405546, 2018-03-11)"><metadata
   id="metadata43"><rdf:RDF><cc:Work
       rdf:about=""><dc:format>image/svg+xml</dc:format><dc:type
         rdf:resource="http://purl.org/dc/dcmitype/StillImage" /></cc:Work></rdf:RDF></metadata><defs
   id="defs41" /><sodipodi:namedview
   pagecolor="#ffffff"
   bordercolor="#666666"
   borderopacity="1"
   objecttolerance="10"
   gridtolerance="10"
   guidetolerance="10"
   inkscape:pageopacity="0"
   inkscape:pageshadow="2"
   inkscape:window-width="1366"
   inkscape:window-height="742"
   id="namedview39"
   showgrid="false"
   inkscape:zoom="0.75003494"
   inkscape:cx="157.326"
   inkscape:cy="157.326"
   inkscape:window-x="0"
   inkscape:window-y="0"
   inkscape:window-maximized="1"
   inkscape:current-layer="Capa_1" />
<g
   id="g6"
   style="fill:#ffffff">
	<path
   d="M157.326,0C70.576,0,0,70.576,0,157.326s70.576,157.326,157.326,157.326s157.326-70.576,157.326-157.326   S244.076,0,157.326,0z M157.326,296.652C80.501,296.652,18,234.15,18,157.326S80.501,18,157.326,18s139.326,62.502,139.326,139.326   S234.151,296.652,157.326,296.652z"
   id="path2"
   style="fill:#ffffff" />
	<path
   d="M193.764,71.952H172.43c-17.461,0-31.667,14.206-31.667,31.667v24h-19.875c-4.971,0-9,4.029-9,9s4.029,9,9,9h19.875v83.333   c0,4.971,4.029,9,9,9s9-4.029,9-9v-83.333h30.75c4.971,0,9-4.029,9-9s-4.029-9-9-9h-30.75v-24c0-7.536,6.131-13.667,13.667-13.667   h21.333c4.971,0,9-4.029,9-9S198.734,71.952,193.764,71.952z"
   id="path4"
   style="fill:#ffffff" />
</g>
<g
   id="g8">
</g>
<g
   id="g10">
</g>
<g
   id="g12">
</g>
<g
   id="g14">
</g>
<g
   id="g16">
</g>
<g
   id="g18">
</g>
<g
   id="g20">
</g>
<g
   id="g22">
</g>
<g
   id="g24">
</g>
<g
   id="g26">
</g>
<g
   id="g28">
</g>
<g
   id="g30">
</g>
<g
   id="g32">
</g>
<g
   id="g34">
</g>
<g
   id="g36">
</g>
</svg>