<?xml version="1.0" encoding="UTF-8" standalone="no"?>
<!-- Generator: Adobe Illustrator 18.0.0, SVG Export Plug-In . SVG Version: 6.00 Build 0)  -->

<svg
   xmlns:dc="http://purl.org/dc/elements/1.1/"
   xmlns:cc="http://creativecommons.org/ns#"
   xmlns:rdf="http://www.w3.org/1999/02/22-rdf-syntax-ns#"
   xmlns:svg="http://www.w3.org/2000/svg"
   xmlns="http://www.w3.org/2000/svg"
   xmlns:sodipodi="http://sodipodi.sourceforge.net/DTD/sodipodi-0.dtd"
   xmlns:inkscape="http://www.inkscape.org/namespaces/inkscape"
   version="1.1"
   id="Capa_1"
   x="0px"
   y="0px"
   viewBox="0 0 314.652 314.652"
   style="enable-background:new 0 0 314.652 314.652;"
   xml:space="preserve"
   sodipodi:docname="linkedin.svg"
   inkscape:version="0.92.3 (2405546, 2018-03-11)"><metadata
   id="metadata47"><rdf:RDF><cc:Work
       rdf:about=""><dc:format>image/svg+xml</dc:format><dc:type
         rdf:resource="http://purl.org/dc/dcmitype/StillImage" /></cc:Work></rdf:RDF></metadata><defs
   id="defs45" /><sodipodi:namedview
   pagecolor="#ffffff"
   bordercolor="#666666"
   borderopacity="1"
   objecttolerance="10"
   gridtolerance="10"
   guidetolerance="10"
   inkscape:pageopacity="0"
   inkscape:pageshadow="2"
   inkscape:window-width="770"
   inkscape:window-height="480"
   id="namedview43"
   showgrid="false"
   inkscape:zoom="0.75003494"
   inkscape:cx="157.326"
   inkscape:cy="157.326"
   inkscape:window-x="0"
   inkscape:window-y="0"
   inkscape:window-maximized="0"
   inkscape:current-layer="Capa_1" />
<g
   id="g10"
   style="fill:#ffffff">
	<path
   d="M157.326,0C70.576,0,0,70.576,0,157.326s70.576,157.326,157.326,157.326s157.326-70.576,157.326-157.326   S244.076,0,157.326,0z M157.326,296.652C80.501,296.652,18,234.15,18,157.326S80.501,18,157.326,18s139.326,62.502,139.326,139.326   S234.151,296.652,157.326,296.652z"
   id="path2"
   style="fill:#ffffff" />
	<path
   d="M112.326,121.119c-4.971,0-9,4.029-9,9v74.414c0,4.971,4.029,9,9,9s9-4.029,9-9v-74.414   C121.326,125.148,117.297,121.119,112.326,121.119z"
   id="path4"
   style="fill:#ffffff" />
	<path
   d="M112.326,79.116c-2.37,0-4.69,0.96-6.36,2.64c-1.68,1.67-2.64,3.99-2.64,6.36s0.96,4.689,2.64,6.37   c1.67,1.67,3.99,2.63,6.36,2.63c2.37,0,4.69-0.96,6.36-2.63c1.68-1.681,2.64-4,2.64-6.37s-0.96-4.69-2.64-6.36   C117.016,80.076,114.696,79.116,112.326,79.116z"
   id="path6"
   style="fill:#ffffff" />
	<path
   d="M190.076,128.119c-9.42,0-18.139,3.036-25.25,8.169v-6.169c0-4.971-4.029-9-9-9s-9,4.029-9,9v74.414c0,4.971,4.029,9,9,9   s9-4.029,9-9v-33.164c0-13.923,11.327-25.25,25.25-25.25s25.25,11.327,25.25,25.25v35.164c0,4.971,4.029,9,9,9s9-4.029,9-9v-35.164   C233.326,147.521,213.924,128.119,190.076,128.119z"
   id="path8"
   style="fill:#ffffff" />
</g>
<g
   id="g12">
</g>
<g
   id="g14">
</g>
<g
   id="g16">
</g>
<g
   id="g18">
</g>
<g
   id="g20">
</g>
<g
   id="g22">
</g>
<g
   id="g24">
</g>
<g
   id="g26">
</g>
<g
   id="g28">
</g>
<g
   id="g30">
</g>
<g
   id="g32">
</g>
<g
   id="g34">
</g>
<g
   id="g36">
</g>
<g
   id="g38">
</g>
<g
   id="g40">
</g>
</svg>